<svg width="125" height="26" viewBox="0 0 125 26" fill="none" xmlns="http://www.w3.org/2000/svg">
<path d="M20.2239 21.608H10.6479L8.95592 26H0.315918L11.3319 0.79995H19.6839L30.6999 26H21.9159L20.2239 21.608ZM17.8839 15.488L15.4359 9.15195L12.9879 15.488H17.8839Z" fill="#FFA756"/>
<path d="M56.8958 0.79995V26H49.9118L40.3358 14.552V26H32.0558V0.79995H39.0398L48.6158 12.248V0.79995H56.8958Z" fill="#FFA756"/>
<path d="M60.9894 0.79995H69.4854V26H60.9894V0.79995Z" fill="#FFA756"/>
<path d="M83.1919 3.23795C83.1919 4.15262 82.9446 4.93662 82.4499 5.58995C81.9553 6.24329 81.2692 6.70529 80.3919 6.97595L82.0999 9.99995H79.7059L78.1659 7.25595H76.2339L75.6879 9.99995H73.4059L75.3659 0.199951H79.3559C80.5693 0.199951 81.5119 0.465951 82.1839 0.997952C82.8559 1.52995 83.1919 2.27662 83.1919 3.23795ZM78.5159 5.44995C79.2719 5.44995 79.8553 5.27728 80.2659 4.93195C80.6859 4.58662 80.8959 4.09195 80.8959 3.44795C80.8959 2.98129 80.7373 2.63128 80.4199 2.39795C80.1026 2.16462 79.6499 2.04795 79.0619 2.04795H77.2699L76.5839 5.44995H78.5159Z" fill="#FFA756"/>
<path d="M91.7368 5.67395C91.7368 6.01929 91.6948 6.40195 91.6108 6.82195H85.8428C85.9175 7.84862 86.5662 8.36195 87.7888 8.36195C88.1715 8.36195 88.5355 8.30128 88.8808 8.17995C89.2355 8.05862 89.5435 7.88595 89.8048 7.66195L90.7148 9.10395C90.2948 9.43995 89.8142 9.69195 89.2728 9.85995C88.7315 10.028 88.1622 10.112 87.5648 10.112C86.7902 10.112 86.1088 9.97662 85.5208 9.70595C84.9422 9.42595 84.4942 9.02929 84.1768 8.51595C83.8688 8.00262 83.7148 7.40995 83.7148 6.73795C83.7148 5.90728 83.9015 5.16062 84.2748 4.49795C84.6575 3.82595 85.1848 3.30328 85.8568 2.92995C86.5288 2.54729 87.2942 2.35595 88.1528 2.35595C88.8808 2.35595 89.5108 2.49128 90.0428 2.76195C90.5842 3.03262 90.9995 3.41995 91.2888 3.92395C91.5875 4.42795 91.7368 5.01128 91.7368 5.67395ZM88.0548 3.99395C87.5415 3.99395 87.1075 4.13395 86.7528 4.41395C86.3982 4.68462 86.1462 5.06262 85.9968 5.54795H89.7348C89.7348 5.06262 89.5808 4.68462 89.2728 4.41395C88.9742 4.13395 88.5682 3.99395 88.0548 3.99395Z" fill="#FFA756"/>
<path d="M101.494 2.46795L99.9959 9.99995H97.9239L98.0639 9.25795C97.4385 9.82728 96.6685 10.112 95.7539 10.112C95.1659 10.112 94.6245 9.97662 94.1299 9.70595C93.6352 9.43528 93.2385 9.04795 92.9399 8.54395C92.6505 8.03062 92.5059 7.42862 92.5059 6.73795C92.5059 5.90728 92.6879 5.16062 93.0519 4.49795C93.4252 3.82595 93.9292 3.30328 94.5639 2.92995C95.1985 2.54729 95.8985 2.35595 96.6639 2.35595C97.8212 2.35595 98.6379 2.73395 99.1139 3.48995L99.3099 2.46795H101.494ZM96.4259 8.30595C96.8552 8.30595 97.2379 8.20329 97.5739 7.99795C97.9099 7.78328 98.1712 7.48928 98.3579 7.11595C98.5445 6.74262 98.6379 6.31329 98.6379 5.82795C98.6379 5.31462 98.4839 4.90862 98.1759 4.60995C97.8772 4.31129 97.4572 4.16195 96.9159 4.16195C96.4865 4.16195 96.1039 4.26928 95.7679 4.48395C95.4319 4.68929 95.1705 4.97862 94.9839 5.35195C94.7972 5.72529 94.7039 6.15462 94.7039 6.63995C94.7039 7.15329 94.8532 7.55929 95.1519 7.85795C95.4599 8.15662 95.8845 8.30595 96.4259 8.30595Z" fill="#FFA756"/>
<path d="M104.986 7.33995C104.967 7.41462 104.958 7.51728 104.958 7.64795C104.958 8.13329 105.224 8.37595 105.756 8.37595C106.045 8.37595 106.339 8.28728 106.638 8.10995L106.96 9.66395C106.475 9.96262 105.849 10.112 105.084 10.112C104.375 10.112 103.805 9.92528 103.376 9.55195C102.947 9.17862 102.732 8.66529 102.732 8.01195C102.732 7.82529 102.755 7.60595 102.802 7.35395L103.404 4.31595H102.242L102.578 2.63595H103.74L104.104 0.801952H106.288L105.924 2.63595H107.8L107.464 4.31595H105.588L104.986 7.33995Z" fill="#FFA756"/>
<path d="M110.846 10.112C110.193 10.112 109.572 10.042 108.984 9.90195C108.405 9.75262 107.953 9.56129 107.626 9.32795L108.466 7.74595C108.793 7.96062 109.189 8.13328 109.656 8.26395C110.132 8.39462 110.608 8.45995 111.084 8.45995C111.579 8.45995 111.947 8.39929 112.19 8.27795C112.433 8.14729 112.554 7.96528 112.554 7.73195C112.554 7.54528 112.447 7.40995 112.232 7.32595C112.017 7.24195 111.672 7.15329 111.196 7.05995C110.655 6.95728 110.207 6.84528 109.852 6.72395C109.507 6.60262 109.203 6.40662 108.942 6.13595C108.69 5.85595 108.564 5.47795 108.564 5.00195C108.564 4.17129 108.909 3.52262 109.6 3.05595C110.3 2.58929 111.215 2.35595 112.344 2.35595C112.867 2.35595 113.375 2.41195 113.87 2.52395C114.365 2.63595 114.785 2.78995 115.13 2.98595L114.346 4.58195C113.73 4.19928 112.988 4.00795 112.12 4.00795C111.644 4.00795 111.28 4.07795 111.028 4.21795C110.785 4.35795 110.664 4.53528 110.664 4.74995C110.664 4.94595 110.771 5.09062 110.986 5.18395C111.201 5.26795 111.56 5.36129 112.064 5.46395C112.596 5.56662 113.03 5.67862 113.366 5.79995C113.711 5.91195 114.01 6.10329 114.262 6.37395C114.514 6.64462 114.64 7.01329 114.64 7.47995C114.64 8.31995 114.285 8.96862 113.576 9.42595C112.876 9.88329 111.966 10.112 110.846 10.112Z" fill="#FFA756"/>
<path d="M124.625 2.46795L123.127 9.99995H121.055L121.209 9.18795C120.883 9.49595 120.509 9.72929 120.089 9.88795C119.669 10.0373 119.226 10.112 118.759 10.112C117.938 10.112 117.28 9.88795 116.785 9.43995C116.3 8.99195 116.057 8.36195 116.057 7.54995C116.057 7.24195 116.09 6.93862 116.155 6.63995L116.981 2.46795H119.165L118.367 6.49995C118.33 6.67729 118.311 6.85929 118.311 7.04595C118.311 7.82995 118.731 8.22195 119.571 8.22195C120.122 8.22195 120.575 8.06328 120.929 7.74595C121.293 7.41928 121.541 6.93395 121.671 6.28995L122.441 2.46795H124.625Z" fill="#FFA756"/>
</svg>
