<svg width="32" height="27" viewBox="0 0 32 27" fill="none" xmlns="http://www.w3.org/2000/svg">
<path d="M31.2989 7.96918C31.2813 6.8355 31.0341 5.7131 30.5683 4.65218C30.1644 3.7573 29.5474 2.94458 28.7569 2.26596C27.9664 1.58734 27.0196 1.05774 25.9772 0.710999C24.7572 0.317865 23.4684 0.10529 22.1655 0.0823263C20.4881 0.0179622 19.9563 0 15.6983 0C11.4402 0 10.8944 1.00371e-07 9.22924 0.0823263C7.927 0.105458 6.63876 0.318031 5.41933 0.710999C4.37671 1.0575 3.42984 1.58702 2.63928 2.26567C1.84872 2.94432 1.23188 3.75716 0.828243 4.65218C0.369363 5.69867 0.122272 6.8048 0.0976455 7.92278C0.0226677 9.36423 0 9.82077 0 13.4761C0 17.1313 -1.29914e-08 17.5983 0.0976455 19.0293C0.123801 20.149 0.369658 21.2536 0.828243 22.3029C1.23256 23.1977 1.84985 24.0102 2.64068 24.6885C3.4315 25.3669 4.37847 25.8962 5.42107 26.2426C6.63716 26.6515 7.92563 26.8793 9.23099 26.9162C10.9101 26.9805 11.442 27 15.7 27C19.958 27 20.5038 27 22.169 26.9162C23.4718 26.8942 24.7607 26.6821 25.9807 26.289C27.0229 25.9419 27.9693 25.4121 28.7598 24.7335C29.5503 24.055 30.1674 23.2425 30.5718 22.3478C31.0304 21.3 31.2762 20.1954 31.3024 19.0742C31.3773 17.6343 31.4 17.1777 31.4 13.521C31.3965 9.86567 31.3965 9.40165 31.2989 7.96918V7.96918ZM15.6878 20.3885C11.2345 20.3885 7.62681 17.2915 7.62681 13.4686C7.62681 9.64564 11.2345 6.54868 15.6878 6.54868C17.8257 6.54868 19.876 7.27773 21.3878 8.57547C22.8995 9.8732 23.7488 11.6333 23.7488 13.4686C23.7488 15.3038 22.8995 17.0639 21.3878 18.3617C19.876 19.6594 17.8257 20.3885 15.6878 20.3885V20.3885ZM24.0696 7.90631C23.8227 7.90651 23.5782 7.8649 23.35 7.78388C23.1219 7.70286 22.9146 7.58401 22.74 7.43414C22.5654 7.28426 22.4269 7.1063 22.3326 6.91044C22.2382 6.71459 22.1897 6.50467 22.1899 6.29272C22.1899 6.08091 22.2385 5.87119 22.333 5.67551C22.4274 5.47983 22.5658 5.30203 22.7402 5.15226C22.9147 5.0025 23.1218 4.88369 23.3498 4.80264C23.5777 4.72159 23.822 4.67987 24.0687 4.67987C24.3155 4.67987 24.5598 4.72159 24.7877 4.80264C25.0157 4.88369 25.2228 5.0025 25.3973 5.15226C25.5717 5.30203 25.7101 5.47983 25.8045 5.67551C25.899 5.87119 25.9476 6.08091 25.9476 6.29272C25.9476 7.18483 25.1071 7.90631 24.0696 7.90631Z" fill="#FFA756"/>
<path d="M15.6885 17.9634C18.5804 17.9634 20.9248 15.9509 20.9248 13.4684C20.9248 10.9859 18.5804 8.97339 15.6885 8.97339C12.7966 8.97339 10.4523 10.9859 10.4523 13.4684C10.4523 15.9509 12.7966 17.9634 15.6885 17.9634Z" fill="#FFA756"/>
</svg>
