<svg width="34" height="34" viewBox="0 0 34 34" fill="none" xmlns="http://www.w3.org/2000/svg">
<path d="M23.608 13.94L21.8789 15.657L18.3351 12.206L20.0642 10.472C20.4066 10.115 20.9887 10.098 21.3996 10.472L23.608 12.597C23.9675 12.954 23.9846 13.532 23.608 13.94ZM10.1862 20.247L17.3251 13.124L20.8688 16.66L13.7471 23.8H10.1862V20.247ZM18.746 0V3.4C26.2615 4.318 31.5857 11.101 30.6613 18.564C30.2834 21.5713 28.9065 24.3676 26.7485 26.5105C24.5904 28.6535 21.7744 30.0207 18.746 30.396V33.796C28.1618 32.776 34.9241 24.378 33.8969 15.045C33.0067 7.123 26.7238 0.85 18.746 0ZM15.3221 0C11.9666 0.306 8.7995 1.615 6.19731 3.74L8.64542 6.358C10.5628 4.828 12.874 3.842 15.3221 3.502V0.102M3.78344 6.239C1.63609 8.81442 0.317911 11.9713 0 15.3H3.42393C3.7492 12.886 4.7079 10.591 6.23155 8.67L3.78344 6.239ZM0.0171196 18.7C0.359512 22.032 1.67772 25.177 3.80056 27.761L6.23155 25.33C4.71976 23.4083 3.75597 21.1184 3.44105 18.7H0.0171196ZM8.57694 27.829L6.19731 30.158C8.79056 32.3046 11.9654 33.6414 15.3221 34V30.6C12.8866 30.2873 10.5806 29.3302 8.64542 27.829H8.57694Z" fill="#FFA756"/>
</svg>
