<svg width="19" height="18" viewBox="0 0 19 18" fill="none" xmlns="http://www.w3.org/2000/svg">
<path d="M17.1648 17.7183L11.1193 11.9829C10.5795 12.3926 9.95881 12.7169 9.2571 12.9559C8.5554 13.1949 7.80871 13.3144 7.01705 13.3144C5.05587 13.3144 3.39625 12.6702 2.03818 11.3817C0.679394 10.0926 0 8.51778 0 6.65718C0 4.79659 0.679394 3.22174 2.03818 1.93263C3.39625 0.644211 5.05587 0 7.01705 0C8.97822 0 10.6382 0.644211 11.997 1.93263C13.3551 3.22174 14.0341 4.79659 14.0341 6.65718C14.0341 7.40825 13.9081 8.11664 13.6562 8.78236C13.4044 9.44808 13.0625 10.037 12.6307 10.5491L18.7031 16.3101C18.901 16.4979 19 16.7283 19 17.0014C19 17.2745 18.892 17.5135 18.6761 17.7183C18.4782 17.9061 18.2263 18 17.9205 18C17.6146 18 17.3627 17.9061 17.1648 17.7183ZM7.01705 11.266C8.36648 11.266 9.51367 10.8181 10.4586 9.92228C11.4029 9.02577 11.875 7.93741 11.875 6.65718C11.875 5.37696 11.4029 4.28859 10.4586 3.39209C9.51367 2.49627 8.36648 2.04836 7.01705 2.04836C5.66761 2.04836 4.52042 2.49627 3.57545 3.39209C2.63121 4.28859 2.15909 5.37696 2.15909 6.65718C2.15909 7.93741 2.63121 9.02577 3.57545 9.92228C4.52042 10.8181 5.66761 11.266 7.01705 11.266Z" fill="#FFA756"/>
</svg>
