<svg width="25" height="33" viewBox="0 0 25 33" fill="none" xmlns="http://www.w3.org/2000/svg">
<mask id="path-1-inside-1_633_119" fill="white">
<path d="M25 1.83333H18.75L16.9643 0H8.03571L6.25 1.83333H0V5.5H25M1.78571 29.3333C1.78571 30.3058 2.16199 31.2384 2.83176 31.9261C3.50153 32.6137 4.40994 33 5.35714 33H19.6429C20.5901 33 21.4985 32.6137 22.1682 31.9261C22.838 31.2384 23.2143 30.3058 23.2143 29.3333V7.33333H1.78571V29.3333Z"/>
</mask>
<path d="M25 1.83333H18.75L16.9643 0H8.03571L6.25 1.83333H0V5.5H25M1.78571 29.3333C1.78571 30.3058 2.16199 31.2384 2.83176 31.9261C3.50153 32.6137 4.40994 33 5.35714 33H19.6429C20.5901 33 21.4985 32.6137 22.1682 31.9261C22.838 31.2384 23.2143 30.3058 23.2143 29.3333V7.33333H1.78571V29.3333Z" fill="#BC6F29"/>
<path d="M18.75 1.83333L18.0337 2.53108L18.3281 2.83333H18.75V1.83333ZM16.9643 0L17.6806 -0.697742L17.3862 -1H16.9643V0ZM8.03571 0V-1H7.61377L7.31937 -0.697742L8.03571 0ZM6.25 1.83333V2.83333H6.67194L6.96635 2.53108L6.25 1.83333ZM0 1.83333V0.833333H-1V1.83333H0ZM0 5.5H-1V6.5H0V5.5ZM1.78571 29.3333H0.785714H1.78571ZM2.83176 31.9261L3.54811 31.2283L2.83176 31.9261ZM22.1682 31.9261L21.4519 31.2283L22.1682 31.9261ZM23.2143 7.33333H24.2143V6.33333H23.2143V7.33333ZM1.78571 7.33333V6.33333H0.785714V7.33333H1.78571ZM25 0.833333H18.75V2.83333H25V0.833333ZM19.4663 1.13559L17.6806 -0.697742L16.2479 0.697742L18.0337 2.53108L19.4663 1.13559ZM16.9643 -1H8.03571V1H16.9643V-1ZM7.31937 -0.697742L5.53365 1.13559L6.96635 2.53108L8.75206 0.697742L7.31937 -0.697742ZM6.25 0.833333H0V2.83333H6.25V0.833333ZM-1 1.83333V5.5H1V1.83333H-1ZM0 6.5H25V4.5H0V6.5ZM0.785714 29.3333C0.785714 30.5626 1.26112 31.7467 2.11541 32.6238L3.54811 31.2283C3.06285 30.7301 2.78571 30.0489 2.78571 29.3333H0.785714ZM2.11541 32.6238C2.97057 33.5018 4.13611 34 5.35714 34V32C4.68378 32 4.0325 31.7256 3.54811 31.2283L2.11541 32.6238ZM5.35714 34H19.6429V32H5.35714V34ZM19.6429 34C20.8639 34 22.0294 33.5018 22.8846 32.6238L21.4519 31.2283C20.9675 31.7256 20.3162 32 19.6429 32V34ZM22.8846 32.6238C23.7389 31.7467 24.2143 30.5626 24.2143 29.3333H22.2143C22.2143 30.0489 21.9371 30.7301 21.4519 31.2283L22.8846 32.6238ZM24.2143 29.3333V7.33333H22.2143V29.3333H24.2143ZM23.2143 6.33333H1.78571V8.33333H23.2143V6.33333ZM0.785714 7.33333V29.3333H2.78571V7.33333H0.785714Z" fill="black" mask="url(#path-1-inside-1_633_119)"/>
</svg>
