<svg width="64" height="19" viewBox="0 0 64 19" fill="none" xmlns="http://www.w3.org/2000/svg">
<path d="M1.85938 9.13281C0.90625 8.24219 0.429688 7.00781 0.429688 5.42969C0.429688 3.86719 0.90625 2.63281 1.85938 1.72656C2.79688 0.835938 4.08594 0.390625 5.72656 0.390625C7.33594 0.390625 8.625 0.835938 9.59375 1.72656C10.5312 2.64844 11 3.88281 11 5.42969C11 7.00781 10.5312 8.24219 9.59375 9.13281C8.625 10.0234 7.33594 10.4688 5.72656 10.4688C4.08594 10.4688 2.79688 10.0234 1.85938 9.13281ZM18.9322 12.3906H44.8541V18.8828H18.9322V12.3906ZM54.1925 9.13281C53.2394 8.24219 52.7628 7.00781 52.7628 5.42969C52.7628 3.86719 53.2394 2.63281 54.1925 1.72656C55.13 0.835938 56.4191 0.390625 58.0597 0.390625C59.6691 0.390625 60.9581 0.835938 61.9269 1.72656C62.8644 2.64844 63.3331 3.88281 63.3331 5.42969C63.3331 7.00781 62.8644 8.24219 61.9269 9.13281C60.9581 10.0234 59.6691 10.4688 58.0597 10.4688C56.4191 10.4688 55.13 10.0234 54.1925 9.13281Z" fill="#FFA756"/>
</svg>
