<svg width="69" height="70" viewBox="0 0 69 70" fill="none" xmlns="http://www.w3.org/2000/svg">
<circle cx="34.5" cy="35" r="33.5" fill="#DEA46F" fill-opacity="0.22" stroke="#BC6F29" stroke-width="2"/>
<path d="M53.8415 27.7559C53.3216 26.5145 52.6859 25.3261 51.943 24.2069L47.9535 26.9345C49.1033 28.6659 49.9099 30.6072 50.3284 32.6504C50.755 34.7802 50.755 36.9751 50.3284 39.1049C50.1194 40.1337 49.8099 41.1388 49.4044 42.1055C49.0103 43.0553 48.5242 43.9632 47.9535 44.816C46.8129 46.5198 45.3626 47.9882 43.68 49.1426C41.9722 50.3067 40.0574 51.1238 38.0421 51.5484C35.9407 51.9749 33.7766 51.9749 31.6752 51.5484C28.6507 50.919 25.8753 49.4035 23.6936 47.1901C22.2525 45.7294 21.1023 44.0015 20.3056 42.1006C19.9037 41.1339 19.5958 40.1298 19.3865 39.1025C18.7513 35.9303 19.0715 32.6379 20.3056 29.6523C21.0992 27.7518 22.249 26.025 23.6912 24.5677C25.1329 23.1103 26.8367 21.9462 28.7107 21.1381C29.6611 20.7311 30.6597 20.4166 31.6704 20.207C31.9278 20.1534 32.1901 20.129 32.45 20.0876V27.5L44.4812 17.75L32.45 8V15.1614C31.865 15.227 31.283 15.3172 30.7055 15.4319C28.0686 15.9793 25.5641 17.0478 23.3351 18.5763C19.3756 21.282 16.4665 25.2966 15.1051 29.9341C13.7437 34.5716 14.0144 39.5441 15.8709 44.0019C16.9045 46.4838 18.4041 48.7388 20.2864 50.6416C22.1661 52.5421 24.3889 54.0589 26.8338 55.1096C30.6774 56.7568 34.9247 57.1811 39.0118 56.3259C42.2835 55.6409 45.3421 54.1615 47.9248 52.0149C50.5075 49.8682 52.5371 47.1185 53.8391 44.0019C54.3685 42.7344 54.7752 41.4157 55.0423 40.0824C55.6002 37.3077 55.6002 34.4476 55.0423 31.673C54.7681 30.331 54.366 29.0192 53.8415 27.7559Z" fill="white"/>
</svg>
