<svg width="44" height="44" viewBox="0 0 44 44" fill="none" xmlns="http://www.w3.org/2000/svg">
<g clip-path="url(#clip0_633_78)">
<path d="M35.5663 27.5C35.3223 28.053 35.2495 28.6664 35.3573 29.2611C35.4652 29.8558 35.7487 30.4046 36.1713 30.8367L36.2813 30.9467C36.6223 31.2872 36.8927 31.6916 37.0772 32.1368C37.2617 32.5819 37.3567 33.059 37.3567 33.5409C37.3567 34.0227 37.2617 34.4999 37.0772 34.945C36.8927 35.3901 36.6223 35.7945 36.2813 36.135C35.9408 36.476 35.5364 36.7464 35.0913 36.9309C34.6462 37.1154 34.169 37.2104 33.6872 37.2104C33.2053 37.2104 32.7282 37.1154 32.2831 36.9309C31.8379 36.7464 31.4335 36.476 31.093 36.135L30.983 36.025C30.5509 35.6024 30.0021 35.3189 29.4074 35.211C28.8127 35.1032 28.1993 35.176 27.6463 35.42C27.1041 35.6524 26.6416 36.0383 26.3159 36.5302C25.9902 37.0221 25.8154 37.5984 25.813 38.1884V38.5C25.813 39.4725 25.4267 40.4051 24.7391 41.0928C24.0514 41.7804 23.1188 42.1667 22.1463 42.1667C21.1739 42.1667 20.2412 41.7804 19.5536 41.0928C18.866 40.4051 18.4797 39.4725 18.4797 38.5V38.335C18.4655 37.7282 18.2691 37.1397 17.9159 36.646C17.5628 36.1523 17.0694 35.7762 16.4997 35.5667C15.9467 35.3227 15.3333 35.2499 14.7386 35.3577C14.1439 35.4655 13.5951 35.7491 13.163 36.1717L13.053 36.2817C12.7125 36.6226 12.3081 36.8931 11.863 37.0776C11.4178 37.2621 10.9407 37.3571 10.4588 37.3571C9.97698 37.3571 9.49985 37.2621 9.05473 37.0776C8.6096 36.8931 8.20521 36.6226 7.86467 36.2817C7.52376 35.9412 7.25331 35.5368 7.06879 35.0917C6.88427 34.6465 6.78929 34.1694 6.78929 33.6875C6.78929 33.2057 6.88427 32.7286 7.06879 32.2834C7.25331 31.8383 7.52376 31.4339 7.86467 31.0934L7.97467 30.9834C8.39732 30.5513 8.68085 30.0025 8.78868 29.4078C8.89652 28.8131 8.82372 28.1997 8.57967 27.6467C8.34728 27.1045 7.96139 26.642 7.46953 26.3163C6.97766 25.9905 6.40128 25.8157 5.81134 25.8134H5.49967C4.52721 25.8134 3.59458 25.4271 2.90695 24.7394C2.21932 24.0518 1.83301 23.1192 1.83301 22.1467C1.83301 21.1742 2.21932 20.2416 2.90695 19.554C3.59458 18.8663 4.52721 18.48 5.49967 18.48H5.66467C6.2715 18.4658 6.86002 18.2694 7.35372 17.9163C7.84743 17.5632 8.22349 17.0697 8.43301 16.5C8.67705 15.9471 8.74985 15.3337 8.64202 14.739C8.53418 14.1442 8.25066 13.5955 7.82801 13.1634L7.71801 13.0534C7.37709 12.7128 7.10664 12.3084 6.92212 11.8633C6.7376 11.4182 6.64262 10.9411 6.64262 10.4592C6.64262 9.97735 6.7376 9.50022 6.92212 9.05509C7.10664 8.60997 7.37709 8.20557 7.71801 7.86504C8.05854 7.52413 8.46293 7.25368 8.90806 7.06915C9.35319 6.88463 9.83032 6.78966 10.3122 6.78966C10.794 6.78966 11.2712 6.88463 11.7163 7.06915C12.1614 7.25368 12.5658 7.52413 12.9063 7.86504L13.0163 7.97504C13.4484 8.39769 13.9972 8.68121 14.5919 8.78905C15.1867 8.89688 15.8 8.82408 16.353 8.58004H16.4997C17.0419 8.34764 17.5044 7.96176 17.8301 7.46989C18.1558 6.97803 18.3307 6.40165 18.333 5.81171V5.50004C18.333 4.52758 18.7193 3.59495 19.4069 2.90732C20.0946 2.21968 21.0272 1.83337 21.9997 1.83337C22.9721 1.83337 23.9048 2.21968 24.5924 2.90732C25.28 3.59495 25.6663 4.52758 25.6663 5.50004V5.66504C25.6687 6.25498 25.8435 6.83136 26.1692 7.32323C26.495 7.81509 26.9574 8.20098 27.4997 8.43337C28.0526 8.67742 28.666 8.75022 29.2608 8.64238C29.8555 8.53455 30.4043 8.25102 30.8363 7.82837L30.9463 7.71837C31.2869 7.37746 31.6913 7.10701 32.1364 6.92249C32.5815 6.73797 33.0586 6.64299 33.5405 6.64299C34.0224 6.64299 34.4995 6.73797 34.9446 6.92249C35.3897 7.10701 35.7941 7.37746 36.1347 7.71837C36.4756 8.05891 36.746 8.4633 36.9306 8.90843C37.1151 9.35355 37.2101 9.83068 37.2101 10.3125C37.2101 10.7944 37.1151 11.2715 36.9306 11.7167C36.746 12.1618 36.4756 12.5662 36.1347 12.9067L36.0247 13.0167C35.602 13.4488 35.3185 13.9976 35.2107 14.5923C35.1028 15.187 35.1756 15.8004 35.4197 16.3534V16.5C35.6521 17.0423 36.038 17.5047 36.5298 17.8305C37.0217 18.1562 37.5981 18.331 38.188 18.3334H38.4997C39.4721 18.3334 40.4048 18.7197 41.0924 19.4073C41.78 20.0949 42.1663 21.0276 42.1663 22C42.1663 22.9725 41.78 23.9051 41.0924 24.5928C40.4048 25.2804 39.4721 25.6667 38.4997 25.6667H38.3347C37.7447 25.6691 37.1684 25.8439 36.6765 26.1696C36.1846 26.4953 35.7987 26.9578 35.5663 27.5Z" stroke="#151515" stroke-width="3" stroke-linecap="round" stroke-linejoin="round"/>
<path d="M22 27.5C25.0376 27.5 27.5 25.0376 27.5 22C27.5 18.9624 25.0376 16.5 22 16.5C18.9624 16.5 16.5 18.9624 16.5 22C16.5 25.0376 18.9624 27.5 22 27.5Z" stroke="#151515" stroke-width="2" stroke-linecap="round" stroke-linejoin="round"/>
</g>
<defs>
<clipPath id="clip0_633_78">
<rect width="44" height="44" fill="white"/>
</clipPath>
</defs>
</svg>
