<svg width="251" height="251" viewBox="0 0 251 251" fill="none" xmlns="http://www.w3.org/2000/svg">
<path d="M50.9997 70.0001H196V135H50.9997V70.0001Z" fill="#D9D9D9"/>
<path d="M125.496 0.916748C56.8012 0.916748 0.913086 56.8048 0.913086 125.5C0.913086 194.195 56.8012 250.083 125.496 250.083C194.192 250.083 250.08 194.195 250.08 125.5C250.08 56.8048 194.192 0.916748 125.496 0.916748ZM63.2048 106.813C63.2064 101.855 65.1775 97.1005 68.6844 93.5959C70.4209 91.8606 72.4821 90.4844 74.7505 89.5457C77.0188 88.607 79.4498 88.1243 81.9047 88.1251C84.3596 88.1259 86.7903 88.6102 89.058 89.5504C91.3257 90.4906 93.3861 91.8683 95.1214 93.6047C96.8567 95.3412 98.2329 97.4024 99.1716 99.6708C100.11 101.939 100.593 104.37 100.592 106.825C100.591 111.783 98.6195 116.537 95.1125 120.042C91.6056 123.546 86.8501 125.514 81.8923 125.513C76.9344 125.511 72.1802 123.54 68.6756 120.033C65.171 116.526 63.2031 111.77 63.2048 106.813ZM125.496 200.25C104.853 200.25 88.1214 186.309 88.1214 169.104C88.1214 151.899 104.853 137.958 125.496 137.958C146.14 137.958 162.871 151.899 162.871 169.104C162.871 186.309 146.14 200.25 125.496 200.25ZM169.013 125.326C166.529 125.389 164.058 124.955 161.745 124.048C159.431 123.141 157.323 121.78 155.544 120.045C153.765 118.31 152.351 116.237 151.386 113.947C150.421 111.657 149.925 109.198 149.925 106.713C149.926 104.228 150.425 101.769 151.391 99.4794C152.358 97.1903 153.773 95.1178 155.553 93.3843C157.333 91.6508 159.442 90.2912 161.756 89.3858C164.07 88.4804 166.542 88.0475 169.026 88.1126C173.877 88.2398 178.487 90.2567 181.873 93.7336C185.259 97.2104 187.153 101.872 187.151 106.725C187.149 111.578 185.252 116.239 181.864 119.713C178.476 123.188 173.865 125.202 169.013 125.326Z" fill="#424242"/>
</svg>
