<svg width="150" height="149" viewBox="0 0 150 149" fill="none" xmlns="http://www.w3.org/2000/svg">
<path d="M148.999 75C148.999 115.317 115.868 148 74.9987 148C34.1296 148 0.998698 115.317 0.998698 75C0.998698 34.6832 34.1296 2 74.9987 2C115.868 2 148.999 34.6832 148.999 75Z" fill="#D9D9D9"/>
<path d="M74.9987 0.75C34.1032 0.75 0.832031 33.8343 0.832031 74.5C0.832031 115.166 34.1032 148.25 74.9987 148.25C115.894 148.25 149.165 115.166 149.165 74.5C149.165 33.8343 115.894 0.75 74.9987 0.75ZM60.1728 107.046L32.6347 79.7215L43.107 69.2785L60.1579 86.2041L99.4218 47.1609L109.909 57.5891L60.1728 107.046Z" fill="#70FF00"/>
</svg>
