<svg width="125" height="125" viewBox="0 0 125 125" fill="none" xmlns="http://www.w3.org/2000/svg">
<path d="M62.5 0C28.0375 0 0 28.0375 0 62.5C0 96.9625 28.0375 125 62.5 125C96.9625 125 125 96.9625 125 62.5C125 28.0375 96.9625 0 62.5 0ZM37.5 65.0875L29.4187 73.1687L20.5813 64.3313L28.6625 56.25L20.5813 48.1687L29.4187 39.3313L37.5 47.4125L45.5813 39.3313L54.4187 48.1687L46.3375 56.25L54.4187 64.3313L45.5813 73.1687L37.5 65.0875ZM75 100H50V87.5H75V100ZM104.419 64.3313L95.5812 73.1687L87.5 65.0875L79.4187 73.1687L70.5813 64.3313L78.6625 56.25L70.5813 48.1687L79.4187 39.3313L87.5 47.4125L95.5812 39.3313L104.419 48.1687L96.3375 56.25L104.419 64.3313Z" fill="#424242"/>
</svg>
