<svg width="125" height="125" viewBox="0 0 125 125" fill="none" xmlns="http://www.w3.org/2000/svg">
<path d="M62.5 0C28.0375 0 0 28.0375 0 62.5C0 96.9625 28.0375 125 62.5 125C96.9625 125 125 96.9625 125 62.5C125 28.0375 96.9625 0 62.5 0ZM37.5 56.3125L25 56.1875C25.1063 46.1625 31.8438 31.25 50 31.25V43.75C37.975 43.75 37.5125 55.0312 37.5 56.3125ZM62.5 100C52.1437 100 43.75 93.0062 43.75 84.375C43.75 75.7438 52.1437 68.75 62.5 68.75C72.8562 68.75 81.25 75.7438 81.25 84.375C81.25 93.0062 72.8562 100 62.5 100ZM93.75 56.25L87.5 56.3C87.45 53.35 86.4125 43.75 75 43.75V31.25C93.3438 31.25 100 46.2062 100 56.25H93.75Z" fill="#424242"/>
</svg>
