<svg width="34" height="22" viewBox="0 0 34 22" fill="none" xmlns="http://www.w3.org/2000/svg">
<path d="M33.2204 1.48983C33.458 0.630315 33.2204 0 32.0972 0H28.3763C27.4295 0 26.9968 0.545287 26.7593 1.14418C26.7593 1.14418 24.8674 6.17005 22.1866 9.42883C21.3212 10.3771 20.9259 10.6765 20.4542 10.6765C20.2183 10.6765 19.8756 10.3771 19.8756 9.51756V1.48983C19.8756 0.458411 19.6024 0 18.8134 0H12.9665C12.376 0 12.0197 0.476895 12.0197 0.931608C12.0197 1.90758 13.3601 2.13309 13.4976 4.88355V10.8503C13.4976 12.1571 13.2821 12.3956 12.807 12.3956C11.5463 12.3956 8.4786 7.3512 6.658 1.57671C6.30338 0.454714 5.94537 0.00184918 4.9952 0.00184918H1.27595C0.212093 0.00184918 0 0.547136 0 1.14603C0 2.22181 1.26068 7.54529 5.87241 14.586C8.9469 19.3937 13.2753 22 17.2185 22C19.5821 22 19.8739 21.4214 19.8739 20.4233V16.7893C19.8739 15.6322 20.0996 15.3993 20.8478 15.3993C21.3976 15.3993 22.3443 15.7024 24.5518 18.0185C27.0732 20.7652 27.4906 21.9982 28.9073 21.9982H32.6266C33.6887 21.9982 34.2198 21.4196 33.9144 20.2773C33.5802 19.1405 32.3755 17.4861 30.7771 15.5286C29.9084 14.4122 28.6104 13.2107 28.2151 12.61C27.6636 11.8355 27.8231 11.4935 28.2151 10.8059C28.2168 10.8078 32.7488 3.85397 33.2204 1.48983V1.48983Z" fill="#FFA756"/>
</svg>
