<svg width="149" height="148" viewBox="0 0 149 148" fill="none" xmlns="http://www.w3.org/2000/svg">
<path d="M125 61C125 84.196 102.838 103 75.5 103C48.1619 103 26 84.196 26 61C26 37.804 48.1619 19 75.5 19C102.838 19 125 37.804 125 61Z" fill="#D9D9D9"/>
<path d="M0 66.3738V125.373H0.420269C2.43921 137.851 14.3468 147.497 28.8419 147.497C38.5164 147.497 45.9329 144.422 50.8607 138.839C53.9252 141.593 57.569 143.776 61.5815 145.263C65.594 146.749 69.8958 147.51 74.2385 147.5C78.5812 147.49 82.8787 146.711 86.883 145.207C90.8873 143.702 94.5189 141.503 97.5682 138.736C102.521 144.356 109.962 147.497 119.488 147.497C135.392 147.497 148.33 135.919 148.33 121.685V66.3738C148.33 29.7797 115.063 0 74.165 0C33.2671 0 0 29.7797 0 66.3738ZM49.4433 73.7487C40.354 73.7487 32.9622 67.1334 32.9622 58.9989C32.9622 50.8645 40.354 44.2492 49.4433 44.2492C58.5327 44.2492 65.9244 50.8645 65.9244 58.9989C65.9244 67.1334 58.5327 73.7487 49.4433 73.7487ZM98.8867 44.2492C107.976 44.2492 115.368 50.8645 115.368 58.9989C115.368 67.1334 107.976 73.7487 98.8867 73.7487C89.7973 73.7487 82.4056 67.1334 82.4056 58.9989C82.4056 50.8645 89.7973 44.2492 98.8867 44.2492Z" fill="#E41111"/>
</svg>
